<?xml version="1.0" encoding="utf-8"?>
<!-- Generator: Adobe Illustrator 24.1.1, SVG Export Plug-In . SVG Version: 6.00 Build 0)  -->
<svg version="1.1" xmlns="http://www.w3.org/2000/svg" xmlns:xlink="http://www.w3.org/1999/xlink" x="0px" y="0px"
	 viewBox="0 0 500 500" style="enable-background:new 0 0 500 500;" xml:space="preserve">
<style type="text/css">
	.st0{fill:url(#SVGID_1_);}
	.st1{fill:#1E009B;}
	.st2{fill:#4631C8;}
	.st3{fill:#F1F1F1;}
	.st4{fill:#FFFFFF;}
	.st5{fill:#FBFBFB;}
	.st6{fill:#F0F0F0;}
	.st7{fill:#4E35E7;}
	.st8{fill:url(#SVGID_2_);}
</style>
<g id="BACKGROUND">
	<linearGradient id="SVGID_1_" gradientUnits="userSpaceOnUse" x1="0.0374" y1="500.0327" x2="500.0374" y2="0.0327">
		<stop  offset="0" style="stop-color:#7FC1FC"/>
		<stop  offset="1" style="stop-color:#BCE0FD"/>
	</linearGradient>
	<rect x="0.04" y="0.03" class="st0" width="500" height="500"/>
</g>
<g id="OBJECTS">
	<g>
		<g>
			<g>
				<g>
					<g>
						<g>
							<path class="st1" d="M130.59,378.97l-4.82,12l63.58,63.58c3.54,3.54,9.28,3.54,12.81,0c12.25-10.25,14.29-40.57,4.82-50.03
								l-50.97-50.97L130.59,378.97z"/>
							<path class="st2" d="M202.17,454.55L202.17,454.55c-3.54,3.54-9.28,3.54-12.81,0l-63.58-63.58l25.42-25.42l50.97,50.97
								C212.67,427.02,212.67,444.05,202.17,454.55z"/>
							<path class="st1" d="M159.91,374.26l-8.72-8.72l-25.42,25.42l6.92,6.92C135.81,386.06,147.54,378.29,159.91,374.26z"/>
						</g>
						<path class="st3" d="M127.5,383.71L127.5,383.71c-15.15,15.15-39.7,15.15-54.85,0l-1.14-1.14c-15.15-15.15-15.15-39.7,0-54.85
							v0L127.5,383.71z"/>
						<path class="st4" d="M64.45,333.6c-1.82,1.87-2.66,4.51-2.11,7.07c1.29,6.02,5.61,17.78,20.02,32.19
							c14.41,14.41,26.16,18.73,32.19,20.02c2.56,0.55,5.19-0.29,7.07-2.11c72.13-70.31,184.7-109.32,184.7-109.32l-66.27-66.27
							l-66.27-66.27C173.77,148.9,134.76,261.47,64.45,333.6z"/>
						<path class="st5" d="M150,241.84c-5.53,15.12-11.14,34.91-3.48,50.46c10.08,20.48,39.2,15.3,56.34,9.45
							c59.79-20.41,103.47-20.31,103.47-20.31L173.77,148.9C173.77,148.9,173.97,176.33,150,241.84z"/>
						<g>
							<path class="st1" d="M170.36,145.13c-8.8,6.13-6.77,22.08-1.68,31.82c12.21,23.34,28.48,43.89,47.09,62.5
								c17.98,17.98,38.49,35.63,61.81,46.32c6.53,2.99,14.45,6.28,21.81,5.4c21.88-2.6,11.43-29.4,5.34-40.95
								c-11.05-20.94-26.88-39.53-43.54-56.2c-15.23-15.23-31.99-29.5-50.63-40.43c-8.81-5.17-19.13-10.26-29.49-10.92
								C176.44,142.38,172.94,143.33,170.36,145.13z"/>
							
								<ellipse transform="matrix(0.7071 -0.7071 0.7071 0.7071 -81.1642 233.0391)" class="st4" cx="240.72" cy="214.49" rx="27.26" ry="90.49"/>
							<g>
								
									<ellipse transform="matrix(0.7071 -0.7071 0.7071 0.7071 -91.2891 228.8451)" class="st6" cx="230.6" cy="224.62" rx="12.94" ry="77"/>
							</g>
						</g>
						<g>
							<g>
								<path class="st7" d="M162.03,357.02c-9.34-2.88-23.54-12.69-37.35-26.5c-13.8-13.8-23.61-27.99-26.5-37.33
									c-1.09-3.51-1.18-6.32-0.16-8.18c-11.16,15.88-23.52,31.33-37.04,45.2c-3,3.07-4.26,7.36-3.38,11.47
									c1.35,6.31,5.92,19.18,21.33,34.6c15.42,15.42,28.29,19.98,34.6,21.33c4.11,0.88,8.39-0.38,11.47-3.38
									c13.89-13.54,29.38-25.93,45.28-37.1C168.43,358.21,165.59,358.12,162.03,357.02z"/>
								<path class="st7" d="M98.7,284.06c-0.01,0.01-0.01,0.02-0.02,0.03C98.68,284.08,98.69,284.07,98.7,284.06L98.7,284.06z"/>
								<path class="st7" d="M171.15,356.52l-0.01-0.01c-0.08,0.07-0.17,0.13-0.25,0.2C170.98,356.64,171.06,356.58,171.15,356.52z"
									/>
								<path d="M98.02,285.01c0.22-0.31,0.44-0.61,0.66-0.92C98.42,284.36,98.21,284.68,98.02,285.01z"/>
								<path d="M170.89,356.7c-0.2,0.14-0.4,0.29-0.61,0.43C170.5,357.01,170.7,356.86,170.89,356.7z"/>
								<path class="st1" d="M172.37,349.74c-1.55,1.06-3.09,2.13-4.63,3.21c0,0.02,0,0.04-0.01,0.05
									c-0.02,0.01-0.06,0.01-0.08,0.01c0,0,0,0-0.01,0c-3.23,0.92-18.71-5.1-39.53-25.92c-20.77-20.77-26.8-36.21-25.93-39.5
									c0-0.01,0-0.03,0.01-0.04c0-0.03,0.01-0.06,0.01-0.08c0.02-0.01,0.05-0.01,0.08-0.01c1.08-1.54,2.15-3.08,3.21-4.62
									c-3.01-0.57-5.34-0.23-6.74,1.17c-0.02,0.02-0.03,0.04-0.04,0.05c-0.01,0.01-0.01,0.02-0.02,0.03
									c-0.22,0.31-0.44,0.61-0.66,0.92c-1.02,1.86-0.92,4.67,0.16,8.18c2.89,9.34,12.7,23.53,26.5,37.33
									c13.81,13.81,28.01,23.62,37.35,26.5c3.55,1.1,6.4,1.18,8.25,0.11c0.2-0.14,0.4-0.29,0.61-0.43
									c0.08-0.07,0.17-0.13,0.25-0.2c0.02-0.02,0.04-0.03,0.05-0.04C172.59,355.06,172.94,352.74,172.37,349.74z"/>
							</g>
							<path d="M167.73,353c0-0.01,0-0.04,0.01-0.05c-0.03,0.02-0.06,0.05-0.1,0.07C167.67,353.01,167.71,353.01,167.73,353z"/>
							<path d="M102.18,287.59c0.03-0.04,0.06-0.09,0.09-0.13c-0.02,0.01-0.06,0-0.08,0.01
								C102.19,287.5,102.19,287.56,102.18,287.59z"/>
						</g>
						<g>
							<path class="st7" d="M269.33,222.74c-0.83-3.88-3.64-11.8-13.12-21.28c-9.48-9.48-17.4-12.29-21.28-13.12
								c-2.53-0.54-5.16,0.23-7.05,2.08c-8.04,7.84-16.94,15.04-26.11,21.58c5.83,7.17,12.43,14.51,19.69,21.77
								c8.16,8.16,16.42,15.49,24.44,21.83c6.49-9.06,13.62-17.86,21.36-25.81C269.09,227.9,269.87,225.27,269.33,222.74z"/>
						</g>
					</g>
					<g>
						
							<ellipse transform="matrix(0.7071 -0.7071 0.7071 0.7071 -73.6366 237.5377)" class="st1" cx="249.91" cy="207.66" rx="6.73" ry="23.05"/>
					</g>
				</g>
				<g>
					<path class="st3" d="M169.3,409.95L169.3,409.95c-2.54,2.54-6.65,2.54-9.19,0l-6.32-6.32c-2.54-2.54-2.54-6.65,0-9.19l0,0
						c2.54-2.54,6.65-2.54,9.19,0l6.32,6.32C171.84,403.3,171.84,407.41,169.3,409.95z"/>
					<g>
						<path class="st1" d="M161.23,395.11c-1.63-1.76-4.39-1.81-6.08-0.12l-0.74,0.7c-0.91,0.86-1.4,2.06-1.36,3.31v0
							c0.04,1.1,0.49,2.14,1.26,2.91l6.72,6.75c2,2,5.27,1.9,7.15-0.21l0.38-0.43c1.28-1.44,1.26-3.61-0.05-5.03L161.23,395.11z"/>
						<path class="st2" d="M167.82,408.24L167.82,408.24c-1.7,1.7-4.47,1.65-6.11-0.12l-6.7-7.23c-1.55-1.67-1.5-4.27,0.11-5.88l0,0
							c1.7-1.7,4.47-1.65,6.11,0.12l6.7,7.23C169.48,404.03,169.43,406.63,167.82,408.24z"/>
					</g>
					<path class="st1" d="M159.35,403.66c0.42-0.92,1.05-1.61,1.73-2.24c0.7-0.61,1.44-1.17,2.4-1.51
						c-0.42,0.92-1.05,1.61-1.73,2.24C161.05,402.76,160.31,403.32,159.35,403.66z"/>
				</g>
			</g>
			<linearGradient id="SVGID_2_" gradientUnits="userSpaceOnUse" x1="237.6833" y1="250.0053" x2="493.8466" y2="-6.1581">
				<stop  offset="0" style="stop-color:#5552E1;stop-opacity:0.1"/>
				<stop  offset="1" style="stop-color:#FFFFFF;stop-opacity:0.4"/>
			</linearGradient>
			<path class="st8" d="M227.64,0.03L174.97,153l0.03,0.03c-6.12,13.16,13.5,47.79,46.45,80.73c31.55,31.55,64.65,50.89,78.96,47.1
				c7.75-2.06,15.5-4.15,23.42-5.4l176.21-27.8V0.03H227.64z"/>
		</g>
		<g>
			<g>
				<g id="_x31_De3N3_5_">
					<g>
						<polygon class="st4" points="376.45,243.86 388.18,254.28 325.35,267.03 325.34,266.98 373.48,249.75 361.83,239.39 
							361.84,239.31 422.47,229.31 422.48,229.36 						"/>
					</g>
				</g>
				<g id="_x31_De3N3_8_">
					<g>
						<polygon class="st4" points="342.21,229.47 350.33,232.01 322.07,252.33 322.06,252.31 342.05,233.05 333.97,230.52 
							333.96,230.48 361.74,212.01 361.76,212.03 						"/>
					</g>
				</g>
			</g>
			<g>
				<g id="_x31_De3N3_9_">
					<g>
						<polygon class="st4" points="217.42,95.9 201.97,98.62 231,41.46 231.05,41.48 214.65,89.92 230,87.22 230.06,87.28 
							200.24,141.01 200.19,140.98 						"/>
					</g>
				</g>
				<g id="_x31_De3N3_7_">
					<g>
						<polygon class="st4" points="229.11,127.03 220.84,124.97 247.84,103.01 247.86,103.03 229.05,123.45 237.26,125.49 
							237.28,125.53 210.65,145.62 210.63,145.6 						"/>
					</g>
				</g>
			</g>
		</g>
	</g>
</g>
<g id="DESIGNED_BY_FREEPIK">
</g>
</svg>
