
<!-- Generator: Adobe Illustrator 24.1.1, SVG Export Plug-In . SVG Version: 6.00 Build 0)  -->
<svg version="1.1" id="Слой_1" xmlns="http://www.w3.org/2000/svg" xmlns:xlink="http://www.w3.org/1999/xlink" x="0px" y="0px"
	 viewBox="0 0 86.1 131.1" style="enable-background:new 0 0 86.1 131.1;" xml:space="preserve">
<style type="text/css">
	.st0{fill:#FFFFFF;}
	.st1{fill:#3178F6;}
	.st2{fill:url(#SVGID_1_);}
	.st3{fill:url(#SVGID_2_);}
	.st4{fill:url(#SVGID_3_);}
	.st5{fill:#2A2F3D;}
</style>
<g>
	<g id="Layer_1">

			<image style="overflow:visible;opacity:0.2;enable-background:new    ;" width="122" height="167" xlink:href="86F6824B.png"  transform="matrix(1 0 0 1 -17.81 -11.87)">
		</image>
		<path class="st0" d="M86.1,88.7L73,2c-0.2-1.3-1.3-2.2-2.6-2c0,0-0.1,0-0.1,0L2,10.4c-1.3,0.2-2.2,1.3-2,2.6c0,0,0,0,0,0
			l17.6,116.1c0.2,1.3,1.3,2.2,2.6,2c0,0,0,0,0,0l38.9-5.9L86.1,88.7z"/>
		<path class="st1" d="M82.7,93.3L69.4,5.7c-0.2-1.2-1.2-2-2.4-1.9L6.2,13.1c-1.2,0.2-1.9,1.3-1.7,2.5l16.6,109.8
			c0.1,1.2,1.2,2,2.4,1.9c0,0,0,0,0,0l38.4-5.8L82.7,93.3z"/>

			<linearGradient id="SVGID_1_" gradientUnits="userSpaceOnUse" x1="41.69" y1="17.45" x2="63.3163" y2="17.45" gradientTransform="matrix(1 0 0 -1 0 134)">
			<stop  offset="0" style="stop-color:#3178F6;stop-opacity:0"/>
			<stop  offset="1" style="stop-color:#3178F6;stop-opacity:0.7"/>
		</linearGradient>
		<path class="st2" d="M41.7,127.8l17.5-2.7l0.2-0.3c5.2-10.3,5.3-16.5,0-19.6C61.9,122,42.7,127.5,41.7,127.8z"/>

			<linearGradient id="SVGID_2_" gradientUnits="userSpaceOnUse" x1="86.1525" y1="60.0376" x2="68.4625" y2="27.8976" gradientTransform="matrix(1 0 0 -1 0 134)">
			<stop  offset="0" style="stop-color:#3178F6;stop-opacity:0"/>
			<stop  offset="1" style="stop-color:#3178F6;stop-opacity:0.7"/>
		</linearGradient>
		<path class="st3" d="M83.6,72.4c0,5.3-1.3,20.5-17.3,22.9c7.7-0.5,14.7-1.7,19-5.6l0.8-1L83.6,72.4z"/>

			<linearGradient id="SVGID_3_" gradientUnits="userSpaceOnUse" x1="62.2222" y1="35.7726" x2="73.4822" y2="26.3827" gradientTransform="matrix(1 0 0 -1 0 134)">
			<stop  offset="0.48" style="stop-color:#FFFFFF"/>
			<stop  offset="1" style="stop-color:#AAC5F6"/>
		</linearGradient>
		<path class="st4" d="M86.1,88.7c-3,2.5-6.6,4.1-10.4,4.7l0,0L63,95.3c-2.8,0.4-4.7,3-4.3,5.8c0,0,0,0,0,0l2.2,14.6l0,0
			c0.5,6.6-1.7,9.5-1.7,9.5l2.6-3.6l0,0l21.4-29.1l0,0L86.1,88.7z"/>
		<path class="st5" d="M77.8,99.9l-1.3-2.1c-0.1-0.2-0.3-0.3-0.5-0.2h-0.3c-0.2,0-0.4,0.1-0.4,0.3l-3.2,9.6L77.8,99.9z"/>
	</g>
</g>
</svg>
